<svg version="1.1" id="Layer_1" xmlns="http://www.w3.org/2000/svg" xmlns:xlink="http://www.w3.org/1999/xlink" x="0px" y="0px"
	 width="100%" viewBox="0 0 1024 896" enable-background="new 0 0 1024 896" xml:space="preserve">
<path fill="#000000" opacity="1.000000" stroke="none" 
	d="
M472.178497,141.076538 
	C492.417328,136.844193 512.351501,136.099121 532.602783,137.392990 
	C554.789490,138.810486 576.110535,143.418762 596.727905,151.319885 
	C630.416870,164.230347 661.162842,181.814850 688.369629,206.048996 
	C709.225891,224.626511 723.978943,247.015488 737.342224,270.992889 
	C748.318420,290.687164 755.174561,311.856537 761.858154,333.112549 
	C764.844421,342.609924 764.518738,352.862000 766.037048,362.723267 
	C769.721863,386.656464 767.613464,410.529755 765.211304,434.376526 
	C764.686523,439.586731 763.052612,444.685242 761.999329,449.514893 
	C759.581787,450.199097 758.506836,448.978210 757.358459,448.096497 
	C745.729797,439.167816 734.196106,430.112823 722.461975,421.325470 
	C719.010132,418.740448 719.884888,415.636627 720.123108,412.346558 
	C721.582336,392.195068 721.584290,372.039276 717.659546,352.167511 
	C712.684021,326.975769 703.200745,303.310669 690.173889,281.285980 
	C685.062500,272.644257 677.484863,265.472046 671.118835,257.559509 
	C656.123779,238.921417 637.977661,224.247269 617.015503,212.667465 
	C595.836914,200.968033 573.745544,192.082855 549.895630,187.935394 
	C536.601074,185.623489 523.187805,184.228836 509.653137,185.922165 
	C508.004639,186.128418 506.327637,186.149826 504.662628,186.174698 
	C458.964844,186.857590 419.644531,203.631348 384.832855,232.681488 
	C363.923431,250.130249 347.286011,271.057556 333.944824,294.387238 
	C325.904968,308.446381 320.146576,323.921509 317.297058,340.170685 
	C316.810120,342.947571 316.141266,345.711273 315.313995,348.406647 
	C309.745331,366.550110 310.753601,385.294647 310.654236,403.860229 
	C310.620087,410.233673 311.257019,416.773987 311.986816,423.209686 
	C312.549744,428.173859 313.762573,428.937195 317.855743,425.871552 
	C331.454956,415.686066 344.919769,405.321045 358.431580,395.018951 
	C362.936249,391.584381 367.413116,388.113220 371.929321,384.694000 
	C374.975433,382.387726 377.812531,380.045441 379.996185,376.703308 
	C382.958527,372.169373 387.993530,369.795380 392.411438,366.833588 
	C415.654724,351.251007 437.977234,334.419128 459.788025,316.906738 
	C462.952026,314.366272 465.254425,314.407196 468.444000,317.054077 
	C479.718048,326.409760 490.831329,335.972656 502.692902,344.608978 
	C507.088470,347.809387 507.001831,349.124878 502.493958,352.298889 
	C496.228271,356.710541 489.791321,360.880951 483.568268,365.350342 
	C481.334473,366.954620 479.692841,366.612885 477.808746,365.008301 
	C474.511475,362.200073 471.049835,359.579285 467.830505,356.686890 
	C464.977844,354.123932 462.732330,354.218018 459.651245,356.715363 
	C429.499390,381.154846 399.301331,405.539032 368.944580,429.723267 
	C354.254852,441.426056 339.192291,452.660614 324.319336,464.134155 
	C322.364899,465.641876 320.190460,466.127777 317.788147,466.187286 
	C304.467072,466.517090 291.119232,465.814545 277.825867,467.041626 
	C273.639008,467.428101 272.063080,465.426544 270.778564,461.771179 
	C265.769745,447.517639 265.067719,432.518707 262.636353,417.813507 
	C258.316864,391.689178 263.594452,366.131989 267.205597,340.539978 
	C271.622711,309.236023 284.214630,280.712952 300.480865,254.026169 
	C308.848785,240.297531 320.946594,229.100815 331.917297,217.249710 
	C336.895721,211.871765 342.462097,207.017502 347.225372,201.465454 
	C356.012909,191.222839 368.203308,185.743988 378.772614,178.001419 
	C394.378723,166.569138 412.006317,158.883255 429.734009,151.951355 
	C443.104980,146.723022 457.715607,144.664978 472.178497,141.076538 
z"/>
<path fill="#000000" opacity="1.000000" stroke="none" 
	d="
M691.475464,386.440857 
	C692.352966,388.430145 693.104370,390.067505 694.061218,392.152588 
	C689.726379,392.293274 687.939575,387.914581 684.301575,387.595551 
	C682.630493,389.993561 683.395874,392.567688 683.365662,394.968750 
	C683.254517,403.799042 683.575745,412.641968 683.224365,421.459839 
	C682.923584,429.008118 688.784302,426.402130 692.320984,427.387817 
	C696.671204,428.600189 696.720581,425.317413 696.893921,422.364380 
	C696.931152,421.730652 697.262939,421.114227 697.412659,420.637665 
	C698.831299,419.704437 699.805176,420.433502 700.732056,421.143707 
	C718.304443,434.609009 735.791809,448.187378 753.496704,461.475922 
	C757.265381,464.304565 757.917175,467.192627 756.526550,471.340881 
	C750.225037,490.137787 742.972290,508.450378 733.713989,526.094055 
	C725.502319,541.742920 712.947937,553.700439 702.352112,567.318481 
	C685.865662,588.507568 663.694580,602.544739 641.341736,616.554138 
	C614.794067,633.192627 585.749329,642.247070 555.306396,648.397827 
	C525.132507,654.494263 495.445038,652.230530 465.573608,646.885010 
	C439.175995,642.161133 415.038757,631.528015 391.470032,619.435852 
	C373.127625,610.025146 356.808655,597.285522 342.159424,583.115723 
	C324.581390,566.112976 310.081146,546.321472 297.060303,525.409607 
	C289.029694,512.512329 284.388947,498.311401 278.017303,484.796082 
	C277.349030,483.378571 276.676392,481.680511 278.054749,479.584259 
	C293.064056,480.723145 308.267700,478.611664 323.540436,478.687592 
	C326.927307,478.704407 328.037476,480.686279 329.281525,483.207031 
	C335.027496,494.849731 340.652618,506.516846 348.490570,517.035278 
	C364.480194,538.493164 383.335052,556.487732 406.307404,570.605530 
	C431.801239,586.272949 459.021271,597.171082 488.290131,602.024475 
	C504.604126,604.729675 521.394958,603.847412 538.116821,602.746704 
	C559.156128,601.361755 578.269348,593.644348 597.928040,587.611511 
	C602.247803,586.285950 605.903503,582.889465 609.975647,580.647644 
	C627.130737,571.203613 643.078064,559.987061 657.300964,546.589905 
	C669.162842,535.416687 679.849060,523.222351 688.268311,508.962433 
	C695.760681,496.272339 701.272339,482.750458 707.653931,469.591003 
	C709.328064,466.138672 707.278442,464.644104 705.207764,462.998901 
	C693.859863,453.982635 682.464233,445.026398 671.092773,436.039764 
	C638.284912,410.112396 605.411316,384.267151 572.759827,358.144318 
	C568.510620,354.744720 565.818054,354.863373 561.676819,358.133301 
	C517.224976,393.232849 472.618530,428.136536 428.102234,463.154663 
	C425.191589,465.444275 422.203613,466.444061 418.480499,466.382782 
	C405.486237,466.168823 392.487427,466.232056 379.490448,466.179901 
	C377.365509,466.171387 375.206451,466.602966 374.358093,463.570221 
	C373.524323,460.589661 373.307068,458.058472 375.971344,455.906677 
	C379.266571,453.245361 383.104309,451.660339 386.986633,450.140900 
	C397.722992,445.938904 406.380615,438.536316 415.298187,431.582031 
	C464.686829,393.066803 514.051941,354.521240 563.333069,315.868683 
	C567.544006,312.565918 570.879456,314.041870 574.035645,316.735138 
	C595.201721,334.797119 617.432617,351.519409 639.259277,368.748688 
	C642.721130,371.481323 645.742859,374.908691 650.268616,376.680573 
	C652.807922,373.029999 651.489136,369.108002 651.623840,365.472321 
	C651.912720,357.674561 651.789062,357.634216 659.485474,357.665192 
	C665.149170,357.687958 670.824280,357.960327 676.472778,357.682648 
	C680.804871,357.469696 682.838013,359.357849 683.839111,363.333893 
	C685.792603,371.092194 688.500916,378.617371 691.475464,386.440857 
z"/>
<path fill="#000000" opacity="1.000000" stroke="none" 
	d="
M520.317871,260.389771 
	C518.838867,265.735046 519.733459,271.348297 516.229675,275.895264 
	C514.031372,274.652985 514.094421,272.722626 513.736755,271.020142 
	C513.156860,268.260040 512.713196,265.469269 512.067871,262.725311 
	C509.358704,251.205612 502.345581,244.534637 490.329529,243.447083 
	C488.598450,243.290405 486.622528,243.567886 484.888092,241.505157 
	C492.831268,238.581589 501.930664,239.303909 507.748474,231.388855 
	C513.102234,224.105118 513.624329,215.645203 515.031067,207.268097 
	C518.394043,208.102951 518.263794,210.098755 518.280151,211.851776 
	C518.302307,214.212952 518.991882,216.429184 519.369507,218.713287 
	C521.725342,232.963165 531.143066,239.002975 544.441162,240.709793 
	C545.418945,240.835281 546.397888,241.085190 547.323364,241.422424 
	C547.713074,241.564453 547.965271,242.083908 548.489136,242.663010 
	C544.148376,244.971970 539.418396,245.102554 534.994080,246.301636 
	C527.714539,248.274551 521.629211,251.558578 520.317871,260.389771 
z"/>
<path fill="#000000" opacity="1.000000" stroke="none" 
	d="
M578.104980,422.793396 
	C583.404419,422.765137 588.244873,423.034210 593.031494,422.643433 
	C596.919250,422.326080 598.050720,424.071777 598.221008,427.451569 
	C598.646118,435.886902 599.158020,444.317841 599.627930,452.623962 
	C598.760498,454.182770 597.342590,454.138885 596.054138,454.165405 
	C588.252869,454.325958 580.459656,454.487366 572.678650,453.461731 
	C569.987488,453.106995 568.831360,451.970703 568.835571,449.354523 
	C568.847107,442.211304 568.759827,435.067474 568.827271,427.924988 
	C568.888733,421.411682 574.075806,423.463257 578.104980,422.793396 
z"/>
<path fill="#000000" opacity="1.000000" stroke="none" 
	d="
M583.009521,488.342194 
	C581.514832,488.343689 580.515930,488.367371 579.518433,488.341248 
	C569.324524,488.074585 568.906494,490.876007 568.789001,477.397308 
	C568.749878,472.905579 568.835632,468.411926 568.738464,463.921875 
	C568.676270,461.050537 569.763489,459.654419 572.789673,459.588257 
	C579.768738,459.435730 586.744507,459.111542 593.719788,458.815399 
	C597.675842,458.647430 599.086243,459.843323 597.869934,464.165161 
	C596.270203,469.849365 598.074646,475.731079 597.997986,481.538177 
	C597.908997,488.278381 598.004089,488.284454 591.492004,488.328064 
	C588.830078,488.345917 586.168030,488.337677 583.009521,488.342194 
z"/>
<path fill="#000000" opacity="1.000000" stroke="none" 
	d="
M534.758240,451.185242 
	C536.537598,443.910889 535.573425,436.895599 535.500732,429.949677 
	C535.450623,425.154327 536.994629,423.440033 541.822571,423.717590 
	C547.628235,424.051392 553.479553,423.872772 559.297241,423.609985 
	C562.558472,423.462708 563.810547,424.470886 563.672424,427.835114 
	C563.385803,434.816254 563.380615,441.809692 563.312134,448.798584 
	C563.288391,451.219879 562.743469,453.030121 559.854126,453.285645 
	C552.885986,453.901764 545.914978,454.430969 538.919861,454.000214 
	C537.206177,453.894684 535.059631,454.137573 534.758240,451.185242 
z"/>
<path fill="#000000" opacity="1.000000" stroke="none" 
	d="
M536.146240,485.663574 
	C534.253784,478.062164 535.010986,470.814453 535.659668,463.549377 
	C535.866577,461.231415 536.505310,459.783508 539.109009,459.706512 
	C545.572327,459.515350 552.032837,459.231720 558.494507,458.985504 
	C561.193848,458.882660 562.999512,459.727325 563.022400,462.857147 
	C563.072021,469.660217 563.230896,476.462463 563.306396,483.265442 
	C563.327515,485.167358 563.129944,487.275024 560.612000,487.185364 
	C552.535339,486.897766 544.375732,488.223511 536.146240,485.663574 
z"/>
<path fill="#000000" opacity="1.000000" stroke="none" 
	d="
M421.178101,279.722107 
	C417.355011,277.364563 412.803223,278.586365 408.053741,275.985077 
	C414.279785,272.756470 421.255402,272.582764 424.564026,267.590912 
	C427.717804,262.832733 431.558380,257.990692 431.706238,251.414413 
	C434.724243,256.970001 434.333282,263.462128 438.142517,268.352020 
	C442.110809,273.446136 448.656708,273.129486 454.129395,275.258331 
	C452.855560,277.806824 450.980957,277.106232 449.450745,277.257507 
	C441.267456,278.066406 435.943207,283.451660 434.865112,291.594757 
	C434.439545,294.809052 435.454895,298.752197 430.981323,301.227722 
	C427.836029,293.939545 430.372772,284.185394 421.178101,279.722107 
z"/>
<path fill="#000000" opacity="1.000000" stroke="none" 
	d="
M591.817505,266.783997 
	C594.494812,262.572144 594.345276,257.684814 596.809387,252.319016 
	C599.544006,259.003204 598.766418,265.995361 604.437195,269.705505 
	C609.440491,272.979004 615.757996,272.459900 621.813110,274.565613 
	C619.558838,277.265167 617.138184,277.190948 614.950562,277.152435 
	C609.389282,277.054474 606.104065,279.920593 603.699646,284.636627 
	C601.165588,289.607086 599.450134,294.912415 597.440857,301.133118 
	C594.229248,297.333435 594.713257,293.658905 594.060852,290.463531 
	C592.132446,281.018494 589.338684,278.271454 579.679688,277.261230 
	C578.584351,277.146667 577.308105,277.500275 576.289368,275.658478 
	C581.475952,272.929230 589.292542,274.541534 591.817505,266.783997 
z"/>
</svg>